<?xml version="1.0" encoding="UTF-8"?>
<svg version="1.1" xmlns="http://www.w3.org/2000/svg" width="360" height="254">
<path d="M0 0 C118.8 0 237.6 0 360 0 C360 83.82 360 167.64 360 254 C241.2 254 122.4 254 0 254 C0 170.18 0 86.36 0 0 Z " fill="#FDFEFE" transform="translate(0,0)"/>
<path d="M0 0 C0.69222656 1.38058594 0.69222656 1.38058594 1.3984375 2.7890625 C18.60744287 36.46236655 46.51960086 60.93762773 82.375 73.3125 C87.20078126 74.84055523 92.0524161 75.94559687 97 77 C98 78 98 78 98.0625 81.0625 C98.041875 82.031875 98.02125 83.00125 98 84 C63.2844029 98.30411177 27.36663903 100.98931853 -8 87 C-21.25843802 81.37035828 -33.2289915 73.94363535 -43.765625 64.078125 C-45.64466562 62.33048582 -47.55911762 60.72402997 -49.5625 59.125 C-60.46636986 49.77882584 -69.03357074 35.97049839 -75 23 C-63.09218516 8.55860754 -18.08828923 0 0 0 Z " fill="#4D78BA" transform="translate(76,157)"/>
<path d="M0 0 C6.04657157 0.64784695 11.8414982 1.7597786 17.75 3.1875 C18.6668457 3.40889648 19.58369141 3.63029297 20.52832031 3.85839844 C34.83748109 7.3780102 48.78466353 11.81340351 62.6875 16.6875 C63.79383789 17.0680957 64.90017578 17.44869141 66.04003906 17.84082031 C67.57289551 18.38947754 67.57289551 18.38947754 69.13671875 18.94921875 C70.50896606 19.43394653 70.50896606 19.43394653 71.90893555 19.9284668 C74 21 74 21 75 24 C73.92267765 26.3282133 72.80962872 28.4330798 71.5 30.625 C71.13124756 31.2530957 70.76249512 31.88119141 70.38256836 32.52832031 C63.83445401 43.48357586 55.23246811 53.21789619 46 62 C45.35289062 62.64195312 44.70578125 63.28390625 44.0390625 63.9453125 C27.82849778 79.40189747 6.69146446 89.16117094 -15 94 C-15.79664063 94.18618896 -16.59328125 94.37237793 -17.4140625 94.56420898 C-24.9632409 96.15272903 -32.42587864 96.33932609 -40.10498047 96.31567383 C-42.23327482 96.31252475 -44.36015853 96.33602258 -46.48828125 96.36132812 C-59.35052429 96.42212933 -71.38650361 94.26993846 -83.5625 90 C-84.67334961 89.62875 -84.67334961 89.62875 -85.80664062 89.25 C-90.05615312 87.79949973 -94.02317626 86.11092066 -98 84 C-98 82.02 -98 80.04 -98 78 C-96.2365625 77.4121875 -96.2365625 77.4121875 -94.4375 76.8125 C-93.61121094 76.5340625 -92.78492188 76.255625 -91.93359375 75.96875 C-89.8494485 75.28051029 -87.7573036 74.61629023 -85.66015625 73.96875 C-49.33035619 62.49210025 -21.53231097 39.08529136 -3 6 C-1.98465236 4.00774772 -0.97907499 2.01032638 0 0 Z " fill="#4D78BA" transform="translate(284,157)"/>
<path d="M0 0 C18.15 0 36.3 0 55 0 C57.44696043 29.36352514 53.5879173 54.56706091 34.64453125 78.0859375 C32.54202499 80.53303505 30.35101227 82.79147332 28 85 C16.02411142 79.92912826 9.15203833 64.58469296 4.4621582 53.12744141 C-1.93301683 36.59632711 -3.72577248 19.56608932 -1 2 C-0.67 1.34 -0.34 0.68 0 0 Z " fill="#FCFEFA" transform="translate(153,0)"/>
<path d="M0 0 C4.48294068 1.49152045 7.90920149 3.96232427 11.5625 6.875 C12.47841919 7.60420654 12.47841919 7.60420654 13.4128418 8.34814453 C35.02612145 25.86394743 52.09995456 51.06628562 55.6184082 79.1171875 C56.64079858 90.16353511 56.20030806 101.35797957 56.125 112.4375 C56.11495006 115.01887674 56.10582777 117.60025726 56.09765625 120.18164062 C56.07580269 126.45451082 56.04248475 132.72723736 56 139 C54.72713135 138.84926025 53.4542627 138.69852051 52.14282227 138.54321289 C51.42683365 138.45842178 50.71084503 138.37363068 49.97315979 138.28627014 C43.4075132 137.33371243 38.63567416 133.38827058 34.578125 128.34375 C31.56578493 123.86997761 29.79306981 119.05395489 28 114 C27.6994873 113.18499023 27.39897461 112.36998047 27.08935547 111.53027344 C21.36756268 95.92741688 17.7025041 80.380063 15 64 C14.77699219 62.73414063 14.55398437 61.46828125 14.32421875 60.1640625 C13.44741901 54.74262899 12.94482958 49.35436108 12.6171875 43.875 C11.50566485 22.14783188 11.50566485 22.14783188 1.13671875 3.453125 C0 2 0 2 0 0 Z " fill="#9CC3E9" transform="translate(117,81)"/>
<path d="M0 0 C0.495 0.99 0.495 0.99 1 2 C0.34 2 -0.32 2 -1 2 C-1.2784375 2.72445312 -1.556875 3.44890625 -1.84375 4.1953125 C-3.28193398 7.6838804 -5.022337 10.96918785 -6.78125 14.3046875 C-9.28818651 19.84887402 -10.27436892 25.27421574 -10.7109375 31.3125 C-10.81990396 32.72130445 -10.92929555 34.13007606 -11.0390625 35.53881836 C-11.09352539 36.26745087 -11.14798828 36.99608337 -11.20410156 37.74679565 C-12.04846747 48.87930786 -13.04969598 59.93501788 -15 70.9375 C-15.15388184 71.80955078 -15.30776367 72.68160156 -15.46630859 73.58007812 C-24.82549057 123.43105777 -24.82549057 123.43105777 -40 135 C-44.99217263 137.53416807 -49.3885994 139 -55 139 C-55.05119059 131.44184297 -55.08593706 123.88373151 -55.10986328 116.32543945 C-55.11984994 113.76031829 -55.13344392 111.1952083 -55.15087891 108.63012695 C-55.39688179 71.47645677 -47.84160231 44.47471473 -22 17 C-21.45085937 16.38640625 -20.90171875 15.7728125 -20.3359375 15.140625 C-14.73808606 9.12913922 -7.35658589 3.67829295 0 0 Z " fill="#9DC3E9" transform="translate(242,81)"/>
<path d="M0 0 C0.33 0 0.66 0 1 0 C1 24.75 1 49.5 1 75 C-40.58 75 -82.16 75 -125 75 C-125 74.67 -125 74.34 -125 74 C-124.37246826 73.9906543 -123.74493652 73.98130859 -123.09838867 73.97167969 C-108.9753829 73.70926115 -95.65758346 72.69397873 -82 69 C-80.09927734 68.49339844 -80.09927734 68.49339844 -78.16015625 67.9765625 C-61.4495032 62.9473158 -43.59960439 53.72197895 -31.2421875 41.20703125 C-29 39 -29 39 -27 39 C-26.73316406 38.401875 -26.46632813 37.80375 -26.19140625 37.1875 C-24.97377508 34.95184933 -23.80991843 33.69978411 -21.9375 32 C-12.4846123 22.74282426 -6.19649058 11.54334415 0 0 Z " fill="#FCFDFE" transform="translate(359,179)"/>
<path d="M0 0 C2.89676576 1.44838288 3.28103882 3.45432458 4.625 6.375 C12.39963325 22.22329086 24.89931515 36.4755758 39 47 C39.84820312 47.67417969 40.69640625 48.34835938 41.5703125 49.04296875 C62.90933724 65.50905202 89.04270192 72.49187943 115.5625 73.5625 C117.07553711 73.62727539 117.07553711 73.62727539 118.61914062 73.69335938 C121.07932575 73.79829618 123.53959175 73.90045701 126 74 C126 74.33 126 74.66 126 75 C84.42 75 42.84 75 0 75 C0 50.25 0 25.5 0 0 Z " fill="#FCFDFE" transform="translate(0,179)"/>
<path d="M0 0 C7.65943927 0.32593359 13.09199417 4.0154677 18.375 9.4375 C22.53524541 15.997887 23.58000376 21.89369776 24.375 29.5 C26.66052786 48.34177809 31.0816581 65.955732 37.0625 83.9375 C37.32384735 84.72571136 37.5851947 85.51392273 37.85446167 86.32601929 C38.61440592 88.60448442 39.38480295 90.87908071 40.16015625 93.15234375 C40.38615509 93.82549622 40.61215393 94.49864868 40.84500122 95.19219971 C42.51392871 100.01174472 44.63834861 104.48373184 47 109 C47.38172363 109.75297363 47.76344727 110.50594727 48.15673828 111.28173828 C48.45821777 111.87196777 48.75969727 112.46219727 49.0703125 113.0703125 C49.75520833 114.421875 50.44010417 115.7734375 51.125 117.125 C51.47175781 117.80175781 51.81851563 118.47851562 52.17578125 119.17578125 C54.1297622 123.04631057 55.74103912 126.83374801 57 131 C29.82185328 113.52539734 9.60795835 83.68980395 2.35839844 52.21435547 C-1.08083064 35.64773615 -3.71817604 16.7289853 0 0 Z " fill="#6D8FC9" transform="translate(67,78)"/>
<path d="M0 0 C6.9134574 30.62822406 -3.49655684 66.67389338 -19.78515625 92.87109375 C-21.45476649 95.30895289 -23.19591418 97.6603262 -25 100 C-25.556875 100.75925781 -26.11375 101.51851563 -26.6875 102.30078125 C-34.84771626 113.04623844 -45.03779361 124.4840014 -57 131 C-55.52932896 126.13547271 -53.50330555 121.80909445 -51.1875 117.3125 C-50.46107093 115.8742876 -49.7358096 114.43548478 -49.01171875 112.99609375 C-48.66286621 112.30370605 -48.31401367 111.61131836 -47.95458984 110.89794922 C-34.26482837 83.6794823 -26.07890433 52.93649358 -23.5234375 22.59765625 C-22.81351505 15.13054269 -19.4903564 10.08581285 -14 5.0625 C-9.44142571 1.3677456 -5.95356283 -0.34020359 0 0 Z " fill="#6D8FC9" transform="translate(293,78)"/>
<path d="M0 0 C14.65476182 4.57827596 26.37988508 14.19883891 37.37109375 24.58203125 C39.83569927 26.95615514 39.83569927 26.95615514 42.16015625 28.51171875 C44.4802205 30.38845862 45.52246312 32.411505 47 35 C48.13280151 36.52113311 49.26646122 38.04169089 50.41333008 39.55224609 C64.12387997 57.82071974 72.79932864 81.04150511 72 104 C69.62533238 101.62533238 68.95913634 99.62763266 67.75 96.5 C65.69151657 91.4296942 63.30458074 86.86098533 60.39453125 82.234375 C59.20791892 80.33313619 58.15878021 78.42308665 57.125 76.4375 C54.89220458 72.42991847 51.74124162 69.23843318 48.609375 65.91796875 C47 64 47 64 47 62 C46.01 61.67 45.02 61.34 44 61 C42.81522196 59.84907276 41.63530224 58.69259054 40.484375 57.5078125 C30.76519647 47.63517326 18.9955607 40.67595365 6.546875 34.80078125 C3.24800036 32.46829474 2.90634086 30.89819052 2 27 C1.63132812 25.7625 1.26265625 24.525 0.8828125 23.25 C-0.27345094 18.49823244 -0.22215054 13.86500013 -0.125 9 C-0.11597656 8.12988281 -0.10695313 7.25976562 -0.09765625 6.36328125 C-0.07434619 4.2420658 -0.03848579 2.12099438 0 0 Z " fill="#D6ECF4" transform="translate(100,37)"/>
<path d="M0 0 C0.99 0 1.98 0 3 0 C3.26200471 9.57772771 2.65347998 18.54981882 1 28 C0.9690625 28.87527344 0.938125 29.75054687 0.90625 30.65234375 C-0.32772638 33.84898083 -2.3700529 34.61662846 -5.37255859 36.03125 C-6.09523926 36.3509375 -6.81791992 36.670625 -7.5625 37 C-9.02620287 37.68437911 -10.48846259 38.37185371 -11.94921875 39.0625 C-12.65095215 39.39121094 -13.35268555 39.71992187 -14.07568359 40.05859375 C-16.44916567 41.21973901 -18.66369998 42.5558857 -20.875 44 C-24 46 -24 46 -26 46 C-26 46.66 -26 47.32 -26 48 C-27.97819285 49.36547825 -29.98280803 50.69282199 -32 52 C-41.42089819 59.54727418 -53.09166864 70.27500592 -57 82 C-57.66 82 -58.32 82 -59 82 C-59.4021875 83.28003906 -59.4021875 83.28003906 -59.8125 84.5859375 C-61.01790337 88.05147218 -62.44412199 91.30320044 -64 94.625 C-64.7734375 96.28402344 -64.7734375 96.28402344 -65.5625 97.9765625 C-66.68258298 100.3323892 -67.8199164 102.67387367 -69 105 C-70.60866815 82.61270152 -61.58561791 59.17922588 -49 41 C-48.34 41 -47.68 41 -47 41 C-46.896875 40.4225 -46.79375 39.845 -46.6875 39.25 C-45.89103535 36.64338842 -44.80934723 35.0264689 -43 33 C-42.34 33 -41.68 33 -41 33 C-40.7628125 32.43796875 -40.525625 31.8759375 -40.28125 31.296875 C-38.71052303 28.48105958 -36.78528536 26.52044584 -34.5 24.25 C-33.7059375 23.45078125 -32.911875 22.6515625 -32.09375 21.828125 C-30 20 -30 20 -28 20 C-28 19.34 -28 18.68 -28 18 C-25.88804214 16.30262277 -23.7821263 14.7327808 -21.5625 13.1875 C-20.92449463 12.73898682 -20.28648926 12.29047363 -19.62915039 11.82836914 C-7.23822509 3.21682467 -7.23822509 3.21682467 0 2 C0 1.34 0 0.68 0 0 Z " fill="#D6ECF4" transform="translate(257,37)"/>
<path d="M0 0 C0.33 0 0.66 0 1 0 C1.20625 1.27875 1.4125 2.5575 1.625 3.875 C5.2028865 21.41658244 12.033089 40.04410379 26 52 C26.99 52 27.98 52 29 52 C42.45262349 37.29596968 49.38766808 19.32450734 53 0 C53.66 0.33 54.32 0.66 55 1 C60.11733559 23.15902865 53.45902325 48.35838055 41.79296875 67.3125 C37.73143899 73.40037031 33.33668813 78.98674752 28 84 C16.02411142 78.92912826 9.15203833 63.58469296 4.4621582 52.12744141 C-1.92251991 35.62346098 -3.76919874 18.53825871 -1 1 C-0.67 0.67 -0.34 0.34 0 0 Z " fill="#A6CA69" transform="translate(153,1)"/>
<path d="M0 0 C7.65713335 2.92822242 13.8500469 8.77110072 20 14 C21.08255768 14.8551495 22.16572111 15.70953394 23.25 16.5625 C26.86486222 19.76658242 29.91172492 23.29406991 33 27 C33.66386719 27.77601562 34.32773438 28.55203125 35.01171875 29.3515625 C40.51212444 35.95204933 46.26000462 43.40002282 48 52 C46.02 52.495 46.02 52.495 44 53 C43.45472656 51.97261719 42.90945312 50.94523437 42.34765625 49.88671875 C37.64370402 41.17866289 32.71430728 33.34341614 26 26 C25.25363281 25.17242187 24.50726563 24.34484375 23.73828125 23.4921875 C18.92539871 18.41678409 13.7314833 14.0912529 8.125 9.9375 C7.48224121 9.45990234 6.83948242 8.98230469 6.17724609 8.49023438 C3.14661604 6.30671443 0.65564505 4.7453692 -3 4 C-2.67 3.01 -2.34 2.02 -2 1 C-1.34 0.67 -0.68 0.34 0 0 Z " fill="#F3FAFB" transform="translate(118,77)"/>
<path d="M0 0 C0.495 0.99 0.495 0.99 1 2 C1.66 2 2.32 2 3 2 C1.55545811 7.03259757 -0.61335067 11.10632027 -3.375 15.5 C-3.81054199 16.19416016 -4.24608398 16.88832031 -4.69482422 17.60351562 C-9.45954569 24.99699095 -15.04663926 31.54655696 -21 38 C-21.69867188 38.76957031 -22.39734375 39.53914063 -23.1171875 40.33203125 C-28.48924043 45.98271763 -34.69047896 50.45714485 -41 55 C-41.66 53.68 -42.32 52.36 -43 51 C-42.05253906 50.26910156 -42.05253906 50.26910156 -41.0859375 49.5234375 C-23.35218964 35.46931456 -11.18475965 19.5504098 0 0 Z " fill="#E6EFF7" transform="translate(280,157)"/>
<path d="M0 0 C0.66 0 1.32 0 2 0 C3.43397102 2.24645354 4.75917249 4.49170389 6.0625 6.8125 C10.11189702 13.78842811 14.67822119 19.92342671 20 26 C20.64582031 26.77859375 21.29164062 27.5571875 21.95703125 28.359375 C27.60003522 35.02524527 34.13549506 41.24184628 41.76953125 45.5703125 C44 47 44 47 45 50 C44.34 50.99 43.68 51.98 43 53 C24.26760023 37.90633743 9.96125868 22.88886479 -2 2 C-1.34 1.34 -0.68 0.68 0 0 Z " fill="#EBF3F9" transform="translate(80,161)"/>
<path d="M0 0 C3.65005579 0.69894685 4.79314611 1.54452045 6.9375 4.5625 C8 7.5 8 7.5 7.9375 10.5625 C5.52417322 13.92653126 4.01711035 15.33758118 -0.0625 16.1875 C-4.10631805 15.34503791 -5.59485541 13.82850019 -8.0625 10.5625 C-8.6875 8.0625 -8.6875 8.0625 -8.0625 5.5625 C-5.56365585 2.25520628 -4.11879585 0.75651352 0 0 Z " fill="#A8CA6D" transform="translate(180.0625,12.4375)"/>
<path d="M0 0 C0.66 0.66 1.32 1.32 2 2 C2.99 2 3.98 2 5 2 C3.33100981 8.17526371 0.14844218 13.48464384 -3 19 C-3.53496094 19.94488281 -4.06992188 20.88976562 -4.62109375 21.86328125 C-9.42523923 30.14174641 -9.42523923 30.14174641 -15 32 C-15.804375 32.86625 -16.60875 33.7325 -17.4375 34.625 C-18.283125 35.40875 -19.12875 36.1925 -20 37 C-22.16015625 36.6484375 -22.16015625 36.6484375 -24 36 C-23.25556641 35.41605469 -23.25556641 35.41605469 -22.49609375 34.8203125 C-11.84221413 26.04652928 -4.35358885 13.06076655 0 0 Z " fill="#F4F9F0" transform="translate(203,49)"/>
<path d="M0 0 C0.33 0.99 0.66 1.98 1 3 C-0.43228816 4.31818554 -1.87102484 5.62936704 -3.3125 6.9375 C-4.11300781 7.66839844 -4.91351563 8.39929688 -5.73828125 9.15234375 C-8 11 -8 11 -11 12 C-11.33 10.68 -11.66 9.36 -12 8 C-10.75312408 7.03760548 -9.50235031 6.08025991 -8.25 5.125 C-7.55390625 4.59132812 -6.8578125 4.05765625 -6.140625 3.5078125 C-4.15277397 2.10761086 -2.20156614 1.02144735 0 0 Z " fill="#EDF4F9" transform="translate(249,200)"/>
<path d="M0 0 C4.67105792 1.55701931 8.08705685 4.08447373 12 7 C10.625 9.5 10.625 9.5 9 12 C8.34 12 7.68 12 7 12 C5.2734375 9.8828125 5.2734375 9.8828125 3.375 7.125 C2.74335937 6.22007813 2.11171875 5.31515625 1.4609375 4.3828125 C0 2 0 2 0 0 Z " fill="#A1C3E6" transform="translate(117,81)"/>
<path d="M0 0 C0.33 0 0.66 0 1 0 C1.66 3.96 2.32 7.92 3 12 C2.01 12 1.02 12 0 12 C-0.33 16.62 -0.66 21.24 -1 26 C-1.33 26 -1.66 26 -2 26 C-2.19266055 8.55351682 -2.19266055 8.55351682 -1 1 C-0.67 0.67 -0.34 0.34 0 0 Z " fill="#BAD391" transform="translate(153,1)"/>
<path d="M0 0 C-3.67929445 2.45286296 -5.47377907 2.23228878 -9.85546875 2.1953125 C-10.51710526 2.1924826 -11.17874176 2.18965271 -11.86042786 2.18673706 C-13.96963737 2.17555918 -16.07841925 2.15045981 -18.1875 2.125 C-19.61913448 2.11496707 -21.05077564 2.10584176 -22.48242188 2.09765625 C-25.98841977 2.07562795 -29.49416813 2.04111485 -33 2 C-33 1.67 -33 1.34 -33 1 C-32.29915283 0.97494385 -31.59830566 0.9498877 -30.8762207 0.92407227 C-27.68814512 0.80773455 -24.50033758 0.68517956 -21.3125 0.5625 C-19.65831055 0.50352539 -19.65831055 0.50352539 -17.97070312 0.44335938 C-16.3706543 0.38051758 -16.3706543 0.38051758 -14.73828125 0.31640625 C-13.26935425 0.26141968 -13.26935425 0.26141968 -11.77075195 0.20532227 C-8.99373777 0.05740245 -8.99373777 0.05740245 -6.28588867 -0.54711914 C-3.81715875 -1.03622456 -2.36289059 -0.7876302 0 0 Z " fill="#DBE9F9" transform="translate(267,252)"/>
<path d="M0 0 C0.99 0.99 1.98 1.98 3 3 C-0.3 5.64 -3.6 8.28 -7 11 C-7.33 10.34 -7.66 9.68 -8 9 C-7.06553465 6.96855359 -6.06775224 4.96466413 -5 3 C-3.68 3 -2.36 3 -1 3 C-0.67 2.01 -0.34 1.02 0 0 Z " fill="#6F91C8" transform="translate(244,198)"/>
<path d="M0 0 C0.66 0.33 1.32 0.66 2 1 C2 4.3 2 7.6 2 11 C0.68 11.33 -0.64 11.66 -2 12 C-1.34 8.04 -0.68 4.08 0 0 Z " fill="#B5CF88" transform="translate(206,1)"/>
<path d="M0 0 C3.37503669 1.1858237 5.64722731 2.27573689 8 5 C7.34 5 6.68 5 6 5 C6 5.66 6 6.32 6 7 C2.58841744 5.86280581 1.88145399 4.95657056 0 2 C0 1.34 0 0.68 0 0 Z " fill="#AFCAE4" transform="translate(117,81)"/>
<path d="M0 0 C-1.26941497 3.91402949 -2.51167694 5.79072873 -6 8 C-5.62403791 5.21788056 -5.32681541 3.4120716 -3.5625 1.1875 C-2 0 -2 0 0 0 Z " fill="#F1F7FB" transform="translate(269,181)"/>
<path d="M0 0 C0.33 0.66 0.66 1.32 1 2 C-0.14018002 5.42054006 -0.92458518 6.2426201 -4 8 C-5.32 7.67 -6.64 7.34 -8 7 C-5.36 4.69 -2.72 2.38 0 0 Z " fill="#ECF5DB" transform="translate(187,78)"/>
<path d="M0 0 C0 3 0 3 -2.25 5.75 C-3.1575 6.4925 -4.065 7.235 -5 8 C-6.32 7.67 -7.64 7.34 -9 7 C-6.03 4.69 -3.06 2.38 0 0 Z " fill="#5B7EB3" transform="translate(253,200)"/>
<path d="M0 0 C2.64 0.33 5.28 0.66 8 1 C5.35261084 2.4606285 4.10551666 3 1 3 C0.34 4.32 -0.32 5.64 -1 7 C-1.66 6.67 -2.32 6.34 -3 6 C-2.01 4.02 -1.02 2.04 0 0 Z " fill="#6283B7" transform="translate(284,157)"/>
<path d="M0 0 C0.33 0.66 0.66 1.32 1 2 C0.34 2 -0.32 2 -1 2 C-1.33 3.32 -1.66 4.64 -2 6 C-3.98 6 -5.96 6 -8 6 C-5.51047079 3.33264727 -3.36591866 1.44253657 0 0 Z " fill="#ACC8E1" transform="translate(242,81)"/>
<path d="M0 0 C0.66 0.99 1.32 1.98 2 3 C1 6 1 6 -1.0625 7.1875 C-1.701875 7.455625 -2.34125 7.72375 -3 8 C-1.125 2.25 -1.125 2.25 0 0 Z " fill="#7F9CC4" transform="translate(239,201)"/>
</svg>
